<svg width="24" height="25" viewBox="0 0 24 25" fill="none" xmlns="http://www.w3.org/2000/svg">
<rect x="1" y="1.27686" width="22" height="22" rx="8" stroke="#202656" stroke-width="2"/>
<path d="M7.31115 11.0152C6.93461 10.6112 6.30184 10.5889 5.89781 10.9654C5.49378 11.3419 5.47149 11.9747 5.84803 12.3787L7.31115 11.0152ZM11.3882 16.8567L10.6567 17.5385C10.8658 17.7629 11.1664 17.8789 11.4721 17.8532C11.7777 17.8275 12.0547 17.6629 12.2234 17.4067L11.3882 16.8567ZM18.2555 8.24695C18.5592 7.7857 18.4315 7.16554 17.9703 6.86179C17.509 6.55804 16.8889 6.68572 16.5851 7.14697L18.2555 8.24695ZM5.84803 12.3787L10.6567 17.5385L12.1198 16.175L7.31115 11.0152L5.84803 12.3787ZM12.2234 17.4067L18.2555 8.24695L16.5851 7.14697L10.5531 16.3067L12.2234 17.4067Z" fill="#202656"/>
</svg>
