<svg width="24" height="25" viewBox="0 0 24 25" fill="none" xmlns="http://www.w3.org/2000/svg">
<path fill-rule="evenodd" clip-rule="evenodd" d="M12 10.8626L18.3512 4.51144C18.7487 4.11386 19.3876 4.10814 19.7782 4.49866C20.1687 4.88919 20.163 5.52808 19.7654 5.92566L13.4142 12.2768L19.7654 18.628C20.163 19.0256 20.1687 19.6645 19.7782 20.055C19.3876 20.4455 18.7488 20.4398 18.3512 20.0422L12 13.691L5.6488 20.0422C5.25122 20.4398 4.61233 20.4455 4.22181 20.055C3.83128 19.6645 3.83701 19.0256 4.23459 18.628L10.5858 12.2768L4.23459 5.92566C3.83701 5.52808 3.83129 4.88919 4.22181 4.49866C4.61234 4.10814 5.25122 4.11386 5.64881 4.51144L12 10.8626Z" fill="black"/>
</svg>
